<svg width="2200" height="900" viewBox="0 0 2200 900" fill="none" xmlns="http://www.w3.org/2000/svg">
  <rect width="2200" height="900" fill="#fbfdf8"/>
  <g opacity="0.24">
    <path d="M0 520C160 430 290 455 430 370C560 292 690 392 810 310C970 200 1110 290 1230 245C1350 200 1460 78 1608 155C1730 218 1825 330 1940 318C2055 306 2140 248 2200 256V900H0V520Z" fill="#669487"/>
    <path d="M0 610C140 575 224 620 354 546C512 456 635 548 775 474C922 396 1031 468 1165 412C1328 344 1462 380 1588 346C1728 308 1810 426 1948 418C2050 412 2125 364 2200 384V900H0V610Z" fill="#8fc2a7"/>
  </g>
  <g opacity="0.38" stroke="#10231d" stroke-width="2">
    <path d="M0 518C160 432 293 456 430 370C559 289 691 393 811 309C968 199 1110 292 1230 245C1358 195 1460 80 1608 155C1730 218 1825 330 1940 318C2058 306 2140 249 2200 256"/>
    <path d="M40 558C197 514 318 538 459 455C594 376 705 451 835 384C967 316 1065 360 1190 313C1334 259 1465 249 1600 226C1745 201 1812 350 1946 357C2064 363 2140 315 2200 323"/>
    <path d="M0 610C142 575 222 622 354 546C512 456 635 548 775 474C922 396 1031 468 1165 412C1328 344 1462 380 1588 346C1728 308 1810 426 1948 418C2050 412 2125 364 2200 384"/>
  </g>
  <g opacity="0.24" stroke="#5f756d" stroke-width="1">
    <path d="M489 449C556 432 632 378 704 388"/>
    <path d="M850 386C918 355 1000 306 1072 325"/>
    <path d="M1190 313C1281 287 1362 238 1456 245"/>
    <path d="M1516 225C1596 198 1662 206 1724 248"/>
    <path d="M1770 352C1846 370 1898 360 1962 348"/>
    <path d="M290 532C374 508 438 474 514 482"/>
    <path d="M690 522C770 492 830 455 912 470"/>
    <path d="M1015 463C1090 450 1160 410 1234 420"/>
    <path d="M1378 374C1470 356 1552 343 1642 360"/>
  </g>
  <g opacity="0.38">
    <ellipse cx="492" cy="700" rx="360" ry="72" fill="#fbfdf8"/>
    <ellipse cx="1010" cy="678" rx="520" ry="90" fill="#fbfdf8"/>
    <ellipse cx="1600" cy="690" rx="540" ry="96" fill="#fbfdf8"/>
    <ellipse cx="1950" cy="610" rx="320" ry="62" fill="#fbfdf8"/>
    <ellipse cx="240" cy="596" rx="300" ry="58" fill="#fbfdf8"/>
  </g>
</svg>
