<svg width="540" height="900" viewBox="0 0 540 900" fill="none" xmlns="http://www.w3.org/2000/svg">
  <g stroke="#10231d" stroke-width="8" stroke-linecap="round" stroke-linejoin="round">
    <path d="M260 900C250 734 288 610 274 456C264 346 245 245 260 112"/>
    <path d="M267 188C314 116 340 70 402 48"/>
    <path d="M270 430C338 348 401 310 486 315"/>
    <path d="M270 650C198 590 122 555 48 570"/>
    <path d="M260 745C344 654 420 604 506 586"/>
  </g>
  <g fill="#10231d">
    <circle cx="260" cy="112" r="13"/>
    <circle cx="402" cy="48" r="13"/>
    <circle cx="486" cy="315" r="13"/>
    <circle cx="48" cy="570" r="13"/>
    <circle cx="506" cy="586" r="13"/>
    <circle cx="270" cy="430" r="10"/>
    <circle cx="260" cy="745" r="10"/>
    <circle cx="267" cy="188" r="10"/>
    <path d="M226 120C206 100 203 75 220 59C248 65 260 86 260 112C250 122 238 126 226 120Z"/>
    <path d="M373 42C364 18 372 2 394 0C415 13 422 32 402 48C392 53 382 52 373 42Z"/>
    <path d="M458 317C442 294 446 273 468 263C494 273 507 291 486 315C477 323 467 324 458 317Z"/>
    <path d="M28 581C3 570 -5 548 10 529C39 529 56 543 48 570C43 580 36 584 28 581Z"/>
    <path d="M476 600C451 587 448 565 468 550C497 554 514 566 506 586C500 599 489 604 476 600Z"/>
    <path d="M100 566C80 548 78 530 93 518C118 519 135 536 129 557C122 567 112 571 100 566Z"/>
    <path d="M430 316C411 298 410 279 427 267C452 271 466 286 459 306C452 317 442 322 430 316Z"/>
    <path d="M364 638C342 624 338 604 354 590C382 591 398 608 390 628C384 640 374 644 364 638Z"/>
  </g>
</svg>
